<svg width="3840" height="2160" viewBox="0 0 3840 2160" fill="none" xmlns="http://www.w3.org/2000/svg">
<rect width="3840" height="2160" fill="#303030"/>
<ellipse cx="1940.35" cy="1344.05" rx="226" ry="47.0536" fill="#A8A8A8"/>
<ellipse cx="1937.86" cy="1343.34" rx="185.719" ry="32.082" fill="#555555"/>
<path d="M1886.17 825.748C1859.21 828.486 1846.46 831.201 1825.21 837.867L1892.59 853.552L1900.79 838.937L1902.21 812.202L1990.26 833.59L1999.88 809.35L2044.09 861.038L2063.69 846.423L2092.21 866.741L2085.79 890.625L2156.73 924.845L2139.62 938.035L2175.26 994.713C2179.77 989.885 2181.91 987.166 2183.11 982.237C2173.97 957.281 2168.92 944.175 2161.36 936.609L2171.34 931.262C2179.7 929.467 2184.61 928.449 2199.86 926.271C2156.7 890.728 2135.69 879.885 2103.97 877.079L2076.88 830.025C2044 808.324 2022.34 795.71 1979.56 772.634L1974.57 796.161C1925.88 791.178 1909.24 790.521 1881.54 789.744L1886.17 825.748Z" fill="#D9D9D9"/>
<path d="M1676.92 1200.39C1709.64 1186.95 1727.76 1178.29 1759.62 1160.47C1763.46 1166.19 1769.99 1194.98 1771.39 1213.58C1775.08 1262.85 1794.13 1271.45 1830.21 1292.01L1845.89 1303.06L2070.11 1217.15L2082.94 1202.89C2125.36 1191.26 2136.94 1174.36 2133.56 1123.75C2150.6 1083.59 2157.22 1061.33 2158.87 1022.52L2194.51 1016.46C2181.73 987.693 2169.83 971.656 2149.96 943.025L2177.4 931.975C2149.44 908.055 2131.4 899.017 2097.2 886.703L2109.32 871.019C2106.44 847.889 2105.65 834.875 2094.7 812.202L2051.21 847.492C2017.52 807.383 1997.52 778.922 1969.23 768C1966.23 777.648 1970.94 794.043 1978.5 821.827C1939.17 807.535 1916.67 799.835 1874.41 787.606C1878.63 807.811 1883.03 819.408 1892.94 840.363C1874.18 841.439 1864.57 841.003 1847.32 840.363L1778.52 823.252C1787.65 840.291 1795.6 848.843 1812.38 863.177C1751.29 892.484 1713.43 899.347 1642.7 903.101C1649.5 920.139 1655.53 929.288 1668.73 945.164L1710.08 967.978C1672.48 1014.48 1655.37 1039.88 1637 1083.12C1664.14 1084.74 1679.36 1084.16 1706.51 1080.62C1685.41 1127.44 1675.54 1153.68 1676.92 1200.39Z" fill="#200056"/>
<path d="M1817.02 1256.72L1859.08 1272.76L1948.91 1207.17L2059.41 1174.73C2054.44 1188.49 2051 1195.83 2045.87 1208.59C2058.72 1201.52 2065.08 1195.75 2074.74 1181.86C2086.8 1184.05 2093.17 1183.45 2102.9 1174.73C2119.4 1155.15 2121.08 1142.73 2107.18 1117.34C2081.66 1095.23 2063.09 1112.82 2057.63 1131.24L2038.74 1148.35C2028.08 1134.77 2022.98 1125.37 2014.85 1106.64L2002.73 1064.94L1984.56 1078.84L1894.73 1146.92L1792.06 1164.39L1797.77 1223.56L1817.02 1256.72Z" fill="#FFB2AA"/>
<path d="M1949.98 1206.81C1858.64 1271.56 1807.36 1307.64 1718.99 1382.19C1714.66 1394.65 1758.31 1382.3 1896.86 1334.78C1888.74 1353.1 1883.63 1363.78 1894.37 1367.93C2056.75 1304.52 2141.94 1271.83 2202 1212.87C2139.12 1212.17 2097.89 1210.66 2036.24 1225.7L2058.7 1176.15C2017.97 1185.37 1993.57 1193.06 1950.16 1206.75L1949.98 1206.81Z" fill="#200056"/>
<path d="M2025.91 1205.38L1964.24 1222.85C1895.19 1270.6 1856.66 1298.41 1788.14 1349.04C1839.87 1330.31 1868.77 1320.03 1917.18 1308.76C1920.24 1318.34 1919.34 1325.4 1917.18 1338.35C2005.63 1307.44 2053.36 1285.41 2136.05 1239.96C2084.74 1232.76 2056.43 1232.44 2007.37 1243.53L2025.91 1205.38Z" fill="#3BA4FF"/>
<path d="M1677.28 917.003C1756.65 913.225 1795.07 903.249 1845.53 862.107L1935.36 862.464L1955.32 867.811C1940.96 851.039 1931.56 842.441 1911.12 829.312L1907.91 822.183C1952.68 830.638 1976.84 838.939 2017.71 862.107L2007.73 824.678C2025.42 845.18 2034.18 858.788 2048.36 885.634L2080.8 854.978C2084.89 860.768 2086.62 864.039 2087.93 869.949C2070.21 887.326 2060.33 897.052 2048.36 912.369C2074.39 896.496 2093.31 902.683 2129.64 922.707L2118.23 926.984L2162.43 998.99L2133.91 989.722C2138.78 1042.09 2136.55 1067.05 2118.23 1098.8C2072.83 1075.21 2055.19 1086.8 2034.46 1141.58L2014.85 1106.29C2021.36 1066.87 2019.63 1045.59 2007.73 1008.97C1998.48 1022.11 1989.45 1033.95 1980.43 1044.62C1923.74 1111.67 1867.26 1132.61 1758.2 1139.44C1759.22 1138.09 1760.24 1136.78 1761.25 1135.52C1774.22 1119.32 1786.86 1109.56 1807.39 1093.45C1775.93 1102.42 1740.71 1137.67 1739.66 1137.3C1734.77 1144.26 1704.71 1164.54 1704.02 1166.17C1710.83 1127.49 1723.11 1088.26 1749.64 1051.03C1719.48 1054.48 1702.68 1056.75 1673 1061.73C1694.98 1023 1711.52 1001.39 1745.37 969.288C1747.77 967.006 1750.26 964.672 1752.85 962.274C1716.02 948.839 1699.3 939.208 1680.49 920.295C1679.43 919.228 1678.36 918.132 1677.28 917.003Z" fill="#D0D0D0"/>
<path d="M1921.46 1030.72C1937.05 1005.46 1942.9 989.118 1949.98 960.136C1951.61 976.428 1951.85 989.518 1941.42 1015.39C1935.03 1022.86 1930.27 1024.75 1921.46 1030.72Z" fill="#D9D9D9"/>
<path d="M1798.48 1187.2C1798.41 1184.5 1798.88 1181.76 1799.55 1178.29L1800.26 1175.09L1847.67 1199.32C1849.71 1205.51 1850.55 1208.96 1850.88 1215.01C1846.43 1219.08 1844.06 1220.45 1839.12 1220.36C1813.58 1221.41 1804.59 1213.51 1798.48 1187.2Z" fill="#343434"/>
<path d="M1950.69 1189.7C1941.36 1192.07 1935.34 1190.75 1923.6 1182.21L1920.75 1175.44L1961.03 1152.63L1977.43 1148.71L1980.63 1160.47C1980.1 1167.32 1979.33 1170.88 1974.93 1175.44C1967.22 1182.74 1962.61 1186.86 1950.69 1189.7Z" fill="#343434"/>
<path d="M1980.99 1045.69L1964.95 1035.35L1946.06 1080.62L1980.99 1045.69Z" fill="#B3B3B3"/>
<path d="M1762.83 1133.73C1834.71 1119.69 1870.4 1103.56 1925.03 1059.59L1863.36 1063.51C1819.31 1080.12 1794.99 1091.27 1751.78 1111.99L1808.46 1092.03C1793.09 1102.12 1782.62 1112.48 1762.83 1133.73Z" fill="#B3B3B3"/>
<path d="M2041.59 873.871C2040.73 867.008 2036.58 861.917 2029.83 852.839C2034.77 882.7 2035.25 899.033 2034.82 926.271C2038.83 912.371 2041.76 902.819 2041.59 873.871Z" fill="#ABABAB"/>
<path d="M1884.62 927.275L1885.1 926.628C1869.95 933.224 1863.26 938.165 1852.31 947.659C1843.63 955.453 1842.57 959.249 1846.6 965.126C1856.15 965.673 1866.47 951.751 1884.62 927.275Z" fill="#ABABAB"/>
<path d="M2053.71 957.997C2043.69 954.1 2039.44 955.568 2034.46 965.126C2038.67 973.785 2042.76 972.176 2050.5 967.621C2056.26 965.102 2057.66 963.188 2053.71 957.997Z" fill="#ABABAB"/>
<path d="M1852.31 1068.15C1906.41 1043.32 1933.19 1026.36 1975.29 981.167C1949.21 1034.43 1934.33 1048.71 1878.68 1063.87L1852.31 1068.15Z" fill="#ABABAB"/>
<path d="M2028.76 1075.27C2020.77 1070.35 2018.58 1067.1 2023.77 1058.88C2064.65 1023.26 2080.21 1000.19 2079.38 969.76C2095.83 972.123 2106.69 975.703 2129.28 986.514C2129.1 978.805 2127.2 974.037 2122.15 965.126L2129.28 969.76C2137.49 983.65 2142.47 989.34 2145.32 993.644L2133.91 990.792C2142.82 1018.38 2141.82 1034.12 2133.56 1059.95C2121.08 1027.21 2109.26 1008.1 2081.51 976.89C2089.77 992.89 2097.57 1001.15 2098.27 1017.53C2108.26 1041.57 2097.06 1055.48 2075.45 1068.15C2073.05 1060.3 2072.06 1052.64 2075.45 1043.91C2075.03 1037.35 2074.18 1039.74 2068.68 1038.56C2052.29 1064.95 2038.89 1072.26 2028.76 1075.27Z" fill="#ABABAB"/>
<path d="M1872.62 981.88C1870.08 982.663 1867.63 983.419 1865.24 984.151C1847.1 990.11 1823.5 1000.66 1767.11 1028.22C1776.38 1029.88 1783.34 1032.4 1799.19 1039.98C1788.54 1046.16 1782.79 1049.79 1773.17 1056.74C1757.52 1061.93 1753.35 1062.69 1753.21 1061.37L1773.17 1042.12L1743.58 1028.22C1757.9 1018.9 1766.92 1014.07 1783.86 1005.76C1816.91 998.473 1835.8 993.165 1865.24 984.151C1867.78 983.315 1870.22 982.569 1872.62 981.88Z" fill="#8B8B8B"/>
<path d="M1706.87 1148.35L1703.66 1166.53C1718.4 1156.44 1726.55 1150.63 1739.66 1138.37C1766.74 1115.16 1780.15 1106.34 1806.32 1092.38C1760.65 1106.41 1731.97 1110.76 1706.87 1148.35Z" fill="#8B8B8B"/>
<path d="M1747.5 990.792C1719.63 1013.42 1704.46 1026.52 1679.42 1051.75C1695.5 1019.98 1711.17 1001.88 1746.08 968.691C1781.91 980.096 1797.93 982.918 1824.5 984.375C1797.2 988.654 1779.54 989.546 1747.5 990.792Z" fill="#D9D9D9"/>
<path d="M1785.29 1033.57C1778.35 1030.73 1774.26 1029.54 1766.75 1027.86C1814.77 1004.77 1842.18 990.942 1872.62 982.237C1852.76 996.73 1832.71 1008.33 1785.29 1033.57Z" fill="white"/>
<path d="M1707.22 1147.99C1717.47 1108.38 1727.29 1087.23 1749.29 1050.68C1754.64 1050.72 1758.23 1050.44 1765.33 1049.61L1753.92 1061.73L1763.9 1059.59V1065.29C1741.04 1085.68 1730.84 1097.82 1728.61 1123.75C1719.12 1132.48 1714.42 1137.78 1707.22 1147.99Z" fill="white"/>
<path d="M2028.04 851.77C2030.08 865.045 2031.08 872.473 2031.97 885.634C2015.41 872.56 1998.25 865.611 1960.67 853.552L1969.94 892.05L1853.73 887.416L1853.14 887.747C1841.71 894.137 1835.12 897.821 1828.42 903.101C1838.71 901.506 1844.28 901.414 1853.73 903.101C1756.61 937.445 1719.14 939.033 1676.57 916.647C1758.82 912.902 1797.75 902.726 1846.6 861.394C1885.31 862.578 1908.43 861.543 1935.36 862.107C1939.79 862.321 1949.77 866.985 1954.97 867.098C1940.97 850.604 1930.89 842.49 1910.41 829.312C1908.58 826.944 1907.25 824.49 1907.56 821.826C1961.79 830.158 1987.86 841.297 2018.06 862.464L2008.08 825.391C2016.61 835.698 2021.71 841.48 2028.04 851.77Z" fill="white"/>
<path d="M2100.41 908.448C2078.6 907.436 2069.57 909.42 2057.63 916.29C2088.51 921.369 2105.28 925.548 2122.51 964.77C2136.61 975.752 2143.45 980.103 2153.16 983.662C2138.87 959.821 2131.16 948.031 2117.52 927.697C2123.04 925.508 2125.82 924.431 2130.35 922.707C2120.24 916.151 2113.6 913.081 2100.41 908.448Z" fill="white"/>
<path d="M2033.39 1016.1C2033.46 1007.02 2036.21 1004.41 2043.37 1001.84C2051.54 1004.67 2051.83 1008.64 2049.08 1017.53C2043.02 1022.57 2039.59 1022.06 2033.39 1016.1Z" fill="white"/>
<path d="M1762.12 1133.73L1758.2 1139.44C1838.76 1136.67 1883.14 1128.33 1946.06 1080.62C1966.71 1042.18 1972.08 1020.36 1975.29 981.167C1946.19 1029.95 1923.2 1047.67 1872.27 1064.94L1924.67 1059.59C1866.74 1104.42 1829.5 1117.11 1762.12 1133.73Z" fill="#666666"/>
<path d="M2012.36 1001.49L2006.3 1010.75C2016.66 1040.78 2019.49 1056.06 2014.5 1105.93C2022.01 1121.72 2027.19 1132.2 2034.46 1142.29C2054.67 1090.04 2071.19 1073.87 2118.23 1099.87C2125.44 1085.56 2130.83 1077.15 2133.56 1059.59C2123.33 1013.77 2107.24 998.482 2081.16 976.533C2101.05 1024.98 2105.64 1048.58 2078.31 1064.58C2077.77 1056.09 2077.87 1051.33 2078.31 1042.84C2074.67 1032.01 2071.35 1032.26 2064.05 1039.63C2051.35 1059.51 2044.33 1066.6 2031.97 1071.71L2012.36 1001.49Z" fill="#666666"/>
<path d="M2048.72 884.921L2064.05 870.662C2063.75 883.32 2062.65 890.315 2057.63 898.823L2049.79 911.656C2055.68 906.161 2061.7 905.443 2076.52 901.319L2101.12 908.091C2073.04 910.176 2057.09 913.878 2034.82 926.271C2039.84 905.77 2041.9 893.302 2041.59 873.158L2048.72 884.921Z" fill="#666666"/>
<path d="M1849.81 1239.25C1853.38 1232.09 1854.13 1227.82 1852.66 1219.64C1858.12 1226.85 1861.99 1230.81 1872.27 1237.47C1863.69 1239.98 1858.82 1240.79 1849.81 1239.25Z" fill="white"/>
<path d="M1798.84 1200.39H1791.71C1793.4 1247.92 1808.8 1263.07 1850.88 1278.46L1858.72 1272.76C1825.67 1260.79 1813.47 1251.7 1804.54 1230.69C1827.95 1236.66 1835.75 1236.44 1848.03 1221.78C1819.85 1233.27 1810.27 1225.04 1798.84 1200.39Z" fill="white"/>
<path d="M1949.98 1206.81C1938.53 1207.42 1934.37 1204.98 1927.16 1199.68C1953.44 1203.54 1965.01 1198.27 1980.99 1177.94C1980.85 1186.97 1978.5 1192.32 1968.16 1201.11L1949.98 1206.81Z" fill="white"/>
<path d="M1784.22 1169.74C1788.21 1181.76 1789.95 1188.47 1791.71 1200.39H1798.84C1798.66 1191.14 1798.65 1186 1799.91 1176.87C1797.62 1175.52 1793.33 1173.21 1784.22 1169.74Z" fill="#D373A3"/>
<path d="M1787.43 1159.4C1785.1 1163.04 1784.24 1164.46 1782.8 1166.89L1781.01 1159.4H1787.43Z" fill="#D373A3"/>
<path d="M1814.52 1170.45C1807.08 1166.57 1802.03 1163.56 1793.13 1158.69C1891.04 1151.1 1936.26 1128.05 1999.53 1053.17L2003.09 1067.43C1941.38 1140.35 1901.72 1163.96 1814.52 1170.45Z" fill="#D373A3"/>
<path d="M1982.06 1170.81L1980.63 1162.25L2000.6 1147.99L2004.87 1152.98L1982.06 1170.81Z" fill="#D373A3"/>
<path d="M2074.74 1152.27L2066.54 1154.41C2072.82 1164.05 2079.02 1166.17 2087.22 1164.03C2095.42 1161.9 2097.89 1157.76 2099.69 1147.99L2093.63 1148.71C2092.84 1141.85 2091.22 1139.23 2083.65 1139.44C2077.53 1141.88 2075.15 1144.28 2074.74 1152.27Z" fill="#D373A3"/>
<path d="M1848.38 1221.43C1825.66 1233.4 1794.2 1227.49 1798.84 1185.78C1799.55 1200.74 1821.18 1230.93 1850.88 1215.01C1849.98 1217.82 1849.43 1219.21 1848.38 1221.43Z" fill="#C2C2C2"/>
<path d="M1915.4 1186.49L1923.6 1181.86C1939.19 1191.79 1950.93 1194.4 1973.86 1176.51C1976.57 1174.46 1979.31 1165.99 1980.63 1160.47L1980.68 1160.65C1982.62 1168.67 1983.57 1172.61 1980.99 1178.29C1964.18 1199.18 1952.47 1203.99 1927.16 1199.68C1922.21 1195.23 1919.72 1191.93 1915.4 1186.49Z" fill="#C2C2C2"/>
<path d="M1963.17 1222.14L1785.65 1350.11L1920.03 1308.4L1915.76 1339.06C1997.71 1309.11 2045.47 1288.07 2135.34 1239.61C2108.02 1235.74 2084.57 1234.61 2051.21 1234.97L2007.37 1243.88L2025.91 1205.03L1963.17 1222.14Z" fill="white"/>
<path d="M1915.4 1339.42C1921.03 1313.9 1924.17 1298.54 1932.15 1273.11C1937.51 1277.44 1939.39 1286.54 1942.49 1299.49C1960.47 1293.08 1969.84 1289.63 1985.62 1286.3C1951.61 1313.09 1928 1334.55 1915.4 1339.42Z" fill="#5E5E5E"/>
<path d="M1784.93 1350.47L1871.2 1294.5L1932.15 1273.11L1915.4 1339.42C1968.48 1297.63 2004.01 1270.68 2060.13 1234.62C2089.97 1233.23 2105.44 1236.09 2134.63 1239.96C2048.89 1285.82 1997.7 1310.45 1915.4 1339.42L1919.32 1308.76L1784.93 1350.47Z" fill="#9D9D9D"/>
<path d="M1971.01 1252.44L2010.58 1208.95L2025.91 1205.03L2007.73 1243.53L1971.01 1252.44Z" fill="#9D9D9D"/>
<path d="M1903.64 1193.26L1894.37 1179.72C1925.97 1159.75 1944.27 1147.42 1977.78 1123.75C1984.23 1130.2 1987.47 1133.74 1992.04 1139.79C1957.19 1162.7 1937.82 1174.52 1903.64 1193.26Z" fill="#200056"/>
<path d="M1846.6 1187.21L1848.03 1201.11C1823.68 1188.18 1809.82 1181.41 1784.93 1169.74L1782.79 1166.89L1788.14 1159.04L1793.13 1158.69C1813.53 1170.14 1825.24 1176.38 1846.6 1187.21Z" fill="#200056"/>
<path d="M2074.74 1152.27L2066.54 1154.41C2066.68 1139.55 2071.48 1130.81 2084.01 1130.17C2096.54 1129.53 2101.12 1135.64 2099.34 1147.99L2093.63 1148.71C2091.7 1142.82 2089.91 1140.48 2084.01 1139.44C2076.72 1143.64 2075.05 1144.93 2074.74 1152.27Z" fill="#200056"/>
</svg>
