<svg width="3641" height="2048" viewBox="0 0 3641 2048" fill="none" xmlns="http://www.w3.org/2000/svg">
<rect width="3641" height="2048" fill="#030F36"/>
<path d="M1725.68 1186.9C1707.49 1186.9 1692.67 1172.09 1692.67 1153.88V1129.62C1692.67 1123.1 1697.95 1117.82 1704.47 1117.82C1710.99 1117.82 1716.27 1123.1 1716.27 1129.62V1153.88C1716.27 1159.07 1720.49 1163.29 1725.68 1163.29C1730.87 1163.29 1735.1 1159.07 1735.1 1153.88V1014.31C1735.1 1007.79 1740.38 1002.5 1746.9 1002.5C1753.42 1002.5 1758.7 1007.79 1758.7 1014.31V1153.88C1758.7 1172.09 1743.9 1186.9 1725.68 1186.9Z" fill="url(#paint0_linear_1_2)"/>
<path d="M1915.33 1186.9C1897.13 1186.9 1882.31 1172.09 1882.31 1153.88V1014.31C1882.31 1007.79 1887.6 1002.5 1894.12 1002.5C1900.64 1002.5 1905.92 1007.79 1905.92 1014.31V1153.88C1905.92 1159.07 1910.14 1163.29 1915.33 1163.29C1920.52 1163.29 1924.74 1159.07 1924.74 1153.88V1129.62C1924.74 1123.1 1930.03 1117.82 1936.55 1117.82C1943.07 1117.82 1948.35 1123.1 1948.35 1129.62V1153.88C1948.33 1172.09 1933.53 1186.9 1915.33 1186.9Z" fill="url(#paint1_linear_1_2)"/>
<path d="M1795.97 1231.91C1789.45 1231.91 1784.17 1226.62 1784.17 1220.1V1002.52C1784.17 996.001 1789.45 990.717 1795.97 990.717C1802.49 990.717 1807.77 996.001 1807.77 1002.52V1220.12C1807.77 1226.62 1802.49 1231.91 1795.97 1231.91Z" fill="url(#paint2_linear_1_2)"/>
<path d="M1845.04 1231.91C1838.53 1231.91 1833.24 1226.62 1833.24 1220.1V1002.52C1833.24 996.001 1838.53 990.717 1845.04 990.717C1851.56 990.717 1856.85 996.001 1856.85 1002.52V1220.12C1856.85 1226.62 1851.56 1231.91 1845.04 1231.91Z" fill="url(#paint3_linear_1_2)"/>
<path d="M1993.59 1012.49C1993.59 1036.8 1974.55 1058.99 1939.97 1074.96C1933.62 1077.89 1926.92 1080.55 1919.83 1082.94V1061.22C1923.84 1059.69 1927.68 1058.08 1931.39 1056.39C1957.93 1044.14 1973.14 1028.14 1973.14 1012.49V1011.76C1972.67 996.345 1957.53 980.665 1931.39 968.596C1901.95 954.995 1862.55 947.506 1820.52 947.506C1778.45 947.506 1739.08 954.979 1709.64 968.596C1683.52 980.665 1668.34 996.345 1667.89 1011.76C1667.87 1011.99 1667.87 1012.23 1667.87 1012.49C1667.87 1020.31 1671.67 1028.22 1678.82 1035.71C1685.94 1043.18 1696.37 1050.26 1709.64 1056.38C1713.35 1058.07 1717.21 1059.69 1721.2 1061.21V1082.92C1714.13 1080.53 1707.41 1077.87 1701.06 1074.95C1669.78 1060.5 1651.19 1040.96 1647.92 1019.39C1647.58 1017.11 1647.41 1014.81 1647.41 1012.48C1647.41 1006.98 1647.6 1001.54 1647.99 996.126C1648.77 985.214 1650.33 974.489 1652.63 964.015C1653.94 958.09 1655.47 952.243 1657.26 946.506C1660.18 937.095 1663.71 927.933 1667.87 919.116C1675.7 902.561 1685.68 887.177 1697.62 873.436C1730.36 835.822 1773.99 815.092 1820.5 815.092C1856.68 815.092 1891.1 827.63 1920.04 850.908C1922.63 852.987 1925.18 855.16 1927.68 857.443C1933.14 862.367 1938.39 867.698 1943.38 873.436C1948.91 879.798 1954.02 886.505 1958.68 893.54C1960.47 896.213 1962.17 898.949 1963.83 901.716C1977.33 924.322 1986.48 949.804 1990.78 976.756C1992.64 988.419 1993.59 1000.36 1993.59 1012.49Z" fill="url(#paint4_linear_1_2)"/>
<path opacity="0.18" d="M1927.7 857.443C1780.68 818.047 1698.33 888.365 1657.26 946.537C1660.18 937.126 1663.71 927.965 1667.87 919.147C1675.7 902.561 1685.68 887.177 1697.62 873.436C1730.36 835.822 1773.99 815.092 1820.5 815.092C1856.68 815.092 1891.1 827.63 1920.04 850.908C1922.65 853.003 1925.2 855.176 1927.7 857.443Z" fill="white"/>
<path opacity="0.18" d="M1963.83 901.716C1774.04 836.306 1648 996.142 1648 996.142C1648 996.142 1648 996.142 1647.99 996.142C1648.77 985.23 1650.33 974.505 1652.63 964.031C1653.94 958.106 1655.47 952.259 1657.26 946.521C1660.18 937.11 1663.71 927.949 1667.87 919.132C1675.7 902.561 1685.68 887.177 1697.62 873.436C1730.36 835.822 1773.99 815.092 1820.5 815.092C1856.68 815.092 1891.1 827.63 1920.04 850.908C1922.63 852.987 1925.18 855.16 1927.68 857.443C1933.14 862.367 1938.39 867.698 1943.38 873.436C1948.91 879.798 1954.02 886.505 1958.68 893.54C1960.47 896.213 1962.18 898.949 1963.83 901.716Z" fill="white"/>
<defs>
<linearGradient id="paint0_linear_1_2" x1="1725.69" y1="1232.7" x2="1725.69" y2="973.498" gradientUnits="userSpaceOnUse">
<stop stop-color="#CD1DFF"/>
<stop offset="1" stop-color="#7500DB"/>
</linearGradient>
<linearGradient id="paint1_linear_1_2" x1="1915.33" y1="1232.7" x2="1915.33" y2="973.498" gradientUnits="userSpaceOnUse">
<stop stop-color="#CD1DFF"/>
<stop offset="1" stop-color="#7500DB"/>
</linearGradient>
<linearGradient id="paint2_linear_1_2" x1="1795.97" y1="1232.7" x2="1795.97" y2="973.498" gradientUnits="userSpaceOnUse">
<stop stop-color="#CD1DFF"/>
<stop offset="1" stop-color="#7500DB"/>
</linearGradient>
<linearGradient id="paint3_linear_1_2" x1="1845.04" y1="1232.7" x2="1845.04" y2="973.498" gradientUnits="userSpaceOnUse">
<stop stop-color="#CD1DFF"/>
<stop offset="1" stop-color="#7500DB"/>
</linearGradient>
<linearGradient id="paint4_linear_1_2" x1="1783.2" y1="825.073" x2="1838.35" y2="1088.29" gradientUnits="userSpaceOnUse">
<stop stop-color="#CD1DFF"/>
<stop offset="1" stop-color="#7500DB"/>
</linearGradient>
</defs>
</svg>
